<?xml version="1.0" standalone="no"?>
<svg viewBox="0 0 200 200" xmlns="http://www.w3.org/2000/svg">
  <path fill="#000000" d="M33.4,-55.8C44.5,-44.8,55.6,-37.7,62.3,-27.2C69,-16.8,71.3,-3.1,68.3,9.1C65.4,21.2,57.2,31.8,49.1,44.1C40.9,56.3,32.8,70.2,21.1,75.3C9.3,80.4,-6.1,76.7,-16.5,68.2C-27,59.7,-32.7,46.4,-39.6,35.8C-46.5,25.1,-54.6,17.1,-56,8C-57.4,-1.1,-52.1,-11.2,-49.9,-25.6C-47.7,-40,-48.7,-58.6,-40.9,-71.1C-33.1,-83.6,-16.6,-90,-2.7,-85.7C11.1,-81.5,22.3,-66.8,33.4,-55.8Z" transform="translate(100 100)" />
</svg>
