<?xml version="1.0" standalone="no"?>
<svg viewBox="0 0 200 200" xmlns="http://www.w3.org/2000/svg">
  <path fill="#000000" d="M42.7,-69.2C51,-61.1,50.4,-41.9,56.3,-26.4C62.3,-11,74.8,0.8,79,15.4C83.2,30,79.1,47.5,69,60.5C58.9,73.5,42.7,81.9,27,81.8C11.4,81.7,-3.7,73,-15.4,64.2C-27.1,55.4,-35.2,46.5,-48.3,38.1C-61.4,29.7,-79.4,21.9,-80.5,11.8C-81.6,1.7,-65.9,-10.6,-58.2,-26.2C-50.5,-41.8,-50.8,-60.7,-42.4,-68.8C-34.1,-76.9,-17,-74.2,0.1,-74.3C17.2,-74.4,34.4,-77.3,42.7,-69.2Z" transform="translate(100 100)" />
</svg>
