<?xml version="1.0" standalone="no"?>
<svg viewBox="0 0 200 200" xmlns="http://www.w3.org/2000/svg">
  <path fill="#A3C1AD" d="M35.7,-60.9C47.2,-55.2,58.1,-47.5,64,-37C69.9,-26.6,70.8,-13.3,69.1,-1C67.4,11.3,63.1,22.6,58.9,36.2C54.8,49.7,50.9,65.5,41.1,73.9C31.3,82.3,15.6,83.3,0.2,83C-15.3,82.7,-30.7,81.2,-42.1,73.8C-53.5,66.3,-61,53,-69.7,39.7C-78.3,26.4,-88.1,13.2,-84.4,2.1C-80.7,-8.9,-63.5,-17.8,-55,-31.3C-46.4,-44.8,-46.6,-62.8,-38.8,-70.7C-31.1,-78.6,-15.6,-76.4,-1.7,-73.4C12.1,-70.4,24.2,-66.6,35.7,-60.9Z" transform="translate(100 100)" />
</svg>
