<?xml version="1.0" standalone="no"?>
<svg viewBox="0 0 200 200" xmlns="http://www.w3.org/2000/svg">
  <path fill="#A3C1AD" d="M42.5,-77.3C53.3,-67.4,59.1,-52.4,61.3,-38.7C63.5,-25,62.1,-12.5,63.3,0.7C64.5,13.9,68.4,27.8,64.5,38.5C60.5,49.2,48.8,56.7,36.8,58.5C24.7,60.2,12.4,56.2,0.2,55.9C-12.1,55.6,-24.1,59.1,-36.1,57.3C-48,55.6,-59.9,48.5,-63.2,38.1C-66.6,27.6,-61.4,13.8,-62.9,-0.9C-64.5,-15.6,-72.9,-31.3,-71.6,-45.3C-70.4,-59.4,-59.5,-71.8,-46,-80C-32.4,-88.3,-16.2,-92.4,-0.2,-92.1C15.9,-91.8,31.7,-87.1,42.5,-77.3Z" transform="translate(100 100)" />
</svg>
