<?xml version="1.0" standalone="no"?>
<svg viewBox="0 0 200 200" xmlns="http://www.w3.org/2000/svg">
  <path fill="#A3C1AD" d="M41.6,-68.6C53,-65.4,60.9,-52.6,65.2,-39.5C69.4,-26.5,70,-13.2,67.2,-1.6C64.4,10,58.3,20.1,52,29.6C45.7,39.1,39.4,48.1,30.7,53.6C22,59.1,11,61,0.7,59.8C-9.7,58.7,-19.3,54.4,-32.7,51.7C-46.1,48.9,-63.3,47.7,-73.1,39.3C-83,30.9,-85.5,15.5,-85.9,-0.2C-86.3,-15.9,-84.5,-31.9,-75.7,-42.1C-67,-52.3,-51.2,-56.7,-37.4,-58.6C-23.6,-60.5,-11.8,-59.8,1.6,-62.6C15,-65.4,30.1,-71.8,41.6,-68.6Z" transform="translate(100 100)" />
</svg>
