<?xml version="1.0" standalone="no"?>
<svg viewBox="0 0 200 200" xmlns="http://www.w3.org/2000/svg">
  <path fill="#A3C1AD" d="M25.3,-44.6C32.9,-39.3,39.3,-32.9,45.5,-25.2C51.6,-17.6,57.5,-8.8,60.9,1.9C64.3,12.7,65.1,25.4,59.2,33.5C53.4,41.7,40.8,45.3,29.8,50C18.8,54.7,9.4,60.4,-3.2,66C-15.8,71.5,-31.6,76.8,-45,73.5C-58.3,70.2,-69.2,58.2,-76.4,44.5C-83.6,30.8,-87.2,15.4,-84.2,1.7C-81.2,-12,-71.7,-23.9,-64.7,-37.9C-57.6,-51.9,-53,-67.9,-42.7,-71.6C-32.3,-75.3,-16.2,-66.6,-3.7,-60.2C8.8,-53.9,17.6,-49.8,25.3,-44.6Z" transform="translate(100 100)" />
</svg>
